# xmcd
#
# Track frame offsets:
#	300
#	13299
#	34136
#	45296
#	56294
#	69752
#	86528
#	113698
#	131748
#	143949
#	154961
#	166417
#	178218
#	199842
#
# Disc length: 2869 seconds
#
# Revision: 0
# Processed by: cddbd v1.5.2PL0 Copyright (c) Steve Scherf et al.
# Submitted via: audiograbber 1.83.01
#
DISCID=be0b310e
DTITLE=Various Artist - movements - 14 deep funk pearls
DYEAR=1900
DGENRE=Funk
TTITLE0=Wayner carter - wahoo, wahoo, wahoo
TTITLE1=the soul shakers - you ain´t my brother
TTITLE2=guy morris and band - cool it
TTITLE3=b. b. brown - I weep
TTITLE4=lou garno trio - muy sabroso (very tasty)
TTITLE5=sheila skipworth - look what you done to me pt. 1&2 (edit)
TTITLE6=randolph bros. plus - what it is pt. 1&2
TTITLE7=doc oliver - soul popcorn pt. 1&2
TTITLE8=rick and the entire world - no no no momerto
TTITLE9=lew hanson - and the islanders - soul safari
TTITLE10=robert parker - the hiccup
TTITLE11=the blowflys - funky in the hole
TTITLE12=prepositions - (do) wghatever turns you on pt. 1&2
TTITLE13=nombres - todos
EXTD=
EXTT0=
EXTT1=
EXTT2=
EXTT3=
EXTT4=
EXTT5=
EXTT6=
EXTT7=
EXTT8=
EXTT9=
EXTT10=
EXTT11=
EXTT12=
EXTT13=
PLAYORDER=
